<svg id="Layer_1" data-name="Layer 1" xmlns="http://www.w3.org/2000/svg" viewBox="0 0 198 20"><defs><style>.cls-1{fill:#fff;}</style></defs><title>progressmini</title><path class="cls-1" d="M0,0V20H198V0ZM16,15H5.3a5.14,5.14,0,0,1,0-10.27H16A5.14,5.14,0,0,1,16,15Zm39.2-.06H30.41a5.14,5.14,0,1,1,0-10.27H55.24a5.14,5.14,0,0,1,0,10.27Zm68.92.47H69.79a5.14,5.14,0,1,1,0-10.27h54.37a5.14,5.14,0,0,1,0,10.27Zm39.38-.47H138.71a5.14,5.14,0,0,1,0-10.27h24.83a5.14,5.14,0,1,1,0,10.27Zm25.18,0H178a5.11,5.11,0,1,1,0-10.22h10.74a5.11,5.11,0,0,1,0,10.22Z"/></svg>