<svg xmlns="http://www.w3.org/2000/svg" xmlns:xlink="http://www.w3.org/1999/xlink" viewBox="0 0 24.844 25.525">
  <defs>
    <style>
      .cls-1 {
        fill: #5bdd97;
      }

      .cls-2, .cls-4 {
        fill: #fff;
      }

      .cls-3, .cls-4 {
        stroke: none;
      }

      .cls-5 {
        filter: url(#Rectangle_151);
      }
    </style>
    <filter id="Rectangle_151" x="0" y="0" width="24.844" height="25.525" filterUnits="userSpaceOnUse">
      <feOffset dx="1" dy="1" input="SourceAlpha"/>
      <feGaussianBlur result="blur"/>
      <feFlood flood-opacity="0.2"/>
      <feComposite operator="in" in2="blur"/>
      <feComposite in="SourceGraphic"/>
    </filter>
  </defs>
  <g id="success" transform="translate(-150.199 -838.778)">
    <g class="cls-5" transform="matrix(1, 0, 0, 1, 150.2, 838.78)">
      <rect id="Rectangle_151-2" data-name="Rectangle 151" class="cls-1" width="23.844" height="24.525" rx="11.922"/>
    </g>
    <g id="Group_147" data-name="Group 147" transform="translate(155.052 845.009)">
      <g id="Path_54" data-name="Path 54" class="cls-2" transform="translate(0 0)">
        <path class="cls-3" d="M 4.678477764129639 13.49096965789795 C 4.551004886627197 13.49096965789795 4.287649631500244 13.49097442626953 4.048291683197021 13.25878429412842 L -0.2434519976377487 9.348529815673828 L -0.2520520091056824 9.340700149536133 L -0.2602620124816895 9.332479476928711 C -0.6460019946098328 8.946749687194824 -0.6460019946098328 8.342430114746094 -0.2602620124816895 7.956699848175049 C -0.07343199849128723 7.769859790802002 0.170867994427681 7.666959762573242 0.4276280105113983 7.666959762573242 C 0.67950439453125 7.666959762573242 0.9193931221961975 7.765985488891602 1.104801177978516 7.946146011352539 L 4.616331100463867 11.11508655548096 L 13.45591831207275 -0.118550218641758 L 13.47429847717285 -0.1418902277946472 L 13.49530792236328 -0.1629002243280411 C 13.71202754974365 -0.3796302080154419 13.99224758148193 -0.509020209312439 14.24489784240723 -0.509020209312439 C 14.48395824432373 -0.509020209312439 14.69329833984375 -0.398984968662262 14.82132625579834 -0.2103387266397476 C 15.18832683563232 0.1950918138027191 15.22089004516602 0.7389642000198364 14.89603328704834 1.091360688209534 L 5.453738212585449 13.10882949829102 L 5.435257911682129 13.13234996795654 L 5.414107799530029 13.15349006652832 C 5.250497817993164 13.31709003448486 4.937067985534668 13.49096965789795 4.678477764129639 13.49096965789795 Z"/>
        <path class="cls-4" d="M 4.678477764129639 12.99096965789795 C 4.773997783660889 12.99096965789795 4.965047836303711 12.89544010162354 5.060577869415283 12.79992008209229 L 14.51752758026123 0.763799786567688 C 14.70857810974121 0.5727497935295105 14.61305809020996 0.2861697673797607 14.42200756072998 0.09511978179216385 C 14.38551998138428 0.02214670181274414 14.32115840911865 -0.009017056785523891 14.24489593505859 -0.009017056785523891 C 14.12149715423584 -0.009017056785523891 13.96693515777588 0.07257285714149475 13.84885787963867 0.1906497776508331 L 4.678477764129639 11.84466934204102 L 0.7619580030441284 8.310249328613281 C 0.6664329767227173 8.214724540710449 0.5470280051231384 8.166962623596191 0.4276230037212372 8.166962623596191 C 0.3082180023193359 8.166962623596191 0.1888130009174347 8.214724540710449 0.09328800439834595 8.310249328613281 C -0.09776199609041214 8.501299858093262 -0.09776199609041214 8.787879943847656 0.09328800439834595 8.97892951965332 L 4.391898155212402 12.89544010162354 C 4.487428188323975 12.99096965789795 4.582948207855225 12.99096965789795 4.678477764129639 12.99096965789795 M 4.678477764129639 13.99096965789795 C 4.5159592628479 13.99096965789795 4.089188575744629 13.99098014831543 3.70611572265625 13.62343978881836 L -0.5802019834518433 9.718130111694336 L -0.5973820090293884 9.702469825744629 L -0.6138219833374023 9.686039924621582 C -1.197811961174011 9.102049827575684 -1.197811961174011 8.187129974365234 -0.6138219833374023 7.603139877319336 C -0.332502007484436 7.321849822998047 0.03734800219535828 7.166959762573242 0.4276280105113983 7.166959762573242 C 0.8075177669525146 7.166959762573242 1.168053150177002 7.31372594833374 1.446382761001587 7.580913543701172 L 4.554190158843994 10.38551998138428 L 13.06298828125 -0.427740216255188 L 13.09973812103271 -0.4744402170181274 L 13.14174842834473 -0.5164602398872375 C 13.45477771759033 -0.8294902443885803 13.85686779022217 -1.009020209312439 14.24489784240723 -1.009020209312439 C 14.63409519195557 -1.009020209312439 14.98888683319092 -0.8274880647659302 15.21111488342285 -0.5246265530586243 C 15.73422622680664 0.06984619051218033 15.7636079788208 0.8740002512931824 15.27751159667969 1.415138483047485 L 5.846898078918457 13.41773986816406 L 5.809947967529297 13.46476936340332 L 5.767648220062256 13.50706005096436 C 5.526758193969727 13.74792957305908 5.096558094024658 13.99096965789795 4.678477764129639 13.99096965789795 Z"/>
      </g>
    </g>
  </g>
</svg>
