<svg xmlns="http://www.w3.org/2000/svg" viewBox="0 0 23.844 24.526">
  <defs>
    <style>
      .cls-1 {
        fill: #5bdd97;
      }
    </style>
  </defs>
  <path id="Subtraction_1" data-name="Subtraction 1" class="cls-1" d="M-3968.078-3755.474a11.845,11.845,0,0,1-8.43-3.492,11.845,11.845,0,0,1-3.492-8.43v-.682a11.843,11.843,0,0,1,3.492-8.429,11.845,11.845,0,0,1,8.43-3.492,11.845,11.845,0,0,1,8.43,3.492,11.843,11.843,0,0,1,3.492,8.429v.682a11.845,11.845,0,0,1-3.492,8.43A11.845,11.845,0,0,1-3968.078-3755.474Zm-6.641-10.629a.969.969,0,0,0-.688.29.963.963,0,0,0,0,1.376l.008.008.009.008,4.291,3.911a.842.842,0,0,0,.63.232,1.2,1.2,0,0,0,.736-.338l.021-.021.019-.024,9.442-12.017a.956.956,0,0,0-.075-1.3.683.683,0,0,0-.576-.3,1.109,1.109,0,0,0-.75.345l-.021.021-.018.024-8.84,11.233-3.512-3.168A.963.963,0,0,0-3974.719-3766.1Z" transform="translate(3980 3780)"/>
</svg>
