<svg xmlns="http://www.w3.org/2000/svg" viewBox="0 0 21.1 19.4">
  <defs>
    <style>
      .cls-1 {
        fill: #64bbe3;
      }
    </style>
  </defs>
  <g id="Group_158" data-name="Group 158" transform="translate(0 0.1)">
    <path id="Path_153" data-name="Path 153" class="cls-1" d="M8.6,3h3.8a.472.472,0,0,0,.5-.5.472.472,0,0,0-.5-.5H8.6a.472.472,0,0,0-.5.5A.472.472,0,0,0,8.6,3Z"/>
    <path id="Path_154" data-name="Path 154" class="cls-1" d="M7.2,4.9a.472.472,0,0,0,.5-.5V.4A.664.664,0,0,0,7.2,0a.536.536,0,0,0-.5.5v4A.458.458,0,0,0,7.2,4.9Z"/>
    <path id="Path_155" data-name="Path 155" class="cls-1" d="M13.8,4.9a.472.472,0,0,0,.5-.5V.4a.5.5,0,0,0-1,0v4C13.4,4.7,13.6,4.9,13.8,4.9Z"/>
    <path id="Path_156" data-name="Path 156" class="cls-1" d="M20.5,2H15.3a.472.472,0,0,0-.5.5.536.536,0,0,0,.5.5H20V6.1H.9V3H5.7a.472.472,0,0,0,.5-.5A.472.472,0,0,0,5.7,2H.5a.472.472,0,0,0-.5.5V18.8a.472.472,0,0,0,.5.5H20.6a.472.472,0,0,0,.5-.5V2.5A.634.634,0,0,0,20.5,2ZM3.9,16.5a.6.6,0,0,1,0-1.2.645.645,0,0,1,.6.6A.576.576,0,0,1,3.9,16.5Zm0-3.1a.6.6,0,0,1,0-1.2.645.645,0,0,1,.6.6A.576.576,0,0,1,3.9,13.4Zm0-3.1a.645.645,0,0,1-.6-.6A.669.669,0,0,1,3.9,9a.645.645,0,0,1,.6.6A.563.563,0,0,1,3.9,10.3Zm4.4,6.2a.6.6,0,0,1,0-1.2.645.645,0,0,1,.6.6A.576.576,0,0,1,8.3,16.5Zm0-3.1a.6.6,0,0,1,0-1.2.645.645,0,0,1,.6.6A.576.576,0,0,1,8.3,13.4Zm0-3.1a.669.669,0,0,1-.6-.7A.645.645,0,0,1,8.3,9a.645.645,0,0,1,.6.6C8.9,10,8.7,10.3,8.3,10.3Zm4.4,6.2a.6.6,0,1,1,.6-.6A.645.645,0,0,1,12.7,16.5Zm0-3.1a.6.6,0,1,1,.6-.6A.645.645,0,0,1,12.7,13.4Zm0-3.1a.6.6,0,1,1,.6-.6A.645.645,0,0,1,12.7,10.3Zm4.4,6.2a.6.6,0,1,1,.6-.6A.645.645,0,0,1,17.1,16.5Zm0-3.1a.6.6,0,1,1,.6-.6A.645.645,0,0,1,17.1,13.4Zm0-3.1a.6.6,0,1,1,.6-.6A.645.645,0,0,1,17.1,10.3Z"/>
  </g>
</svg>
