<svg xmlns="http://www.w3.org/2000/svg" viewBox="0 0 38.36 38.36"><defs><style>.a{fill:#cf202f;}</style></defs><g transform="translate(22 11)"><path class="a" d="M27.971,0H10.389L0,10.389V27.971L10.389,38.36H27.971L38.36,27.971V10.389ZM25.893,23.655a1.545,1.545,0,0,1,0,2.238,1.545,1.545,0,0,1-2.238,0L19.18,21.418,14.7,25.893a1.545,1.545,0,0,1-2.238,0,1.545,1.545,0,0,1,0-2.238l4.475-4.475-4.316-4.316a1.582,1.582,0,0,1,2.238-2.238l4.316,4.316,4.475-4.475A1.582,1.582,0,0,1,25.893,14.7L21.418,19.18Z" transform="translate(-22 -11)"/></g></svg>