<svg xmlns="http://www.w3.org/2000/svg" viewBox="0 0 25.751 25.626">
  <defs>
    <style>
      .cls-1, .cls-2 {
        fill: #364e4f;
      }

      .cls-3, .cls-4 {
        stroke: none;
      }

      .cls-4 {
        fill: #fff;
      }
    </style>
  </defs>
  <g id="Group_1271" data-name="Group 1271" transform="translate(-254.3 -431.787)">
    <ellipse id="Ellipse_325" data-name="Ellipse 325" class="cls-1" cx="4.773" cy="4.774" rx="4.773" ry="4.774" transform="translate(260.204 431.787)"/>
    <ellipse id="Ellipse_326" data-name="Ellipse 326" class="cls-1" cx="4.773" cy="4.774" rx="4.773" ry="4.774" transform="translate(264.474 447.866)"/>
    <ellipse id="Ellipse_327" data-name="Ellipse 327" class="cls-1" cx="4.773" cy="4.774" rx="4.773" ry="4.774" transform="translate(270.504 437.691)"/>
    <ellipse id="Ellipse_328" data-name="Ellipse 328" class="cls-1" cx="4.773" cy="4.774" rx="4.773" ry="4.774" transform="translate(254.3 441.962)"/>
    <g id="Group_1265" data-name="Group 1265" transform="translate(261.939 439.199)">
      <g id="Path_3572" data-name="Path 3572" class="cls-2" transform="translate(-121.653 -7.972)">
        <path class="cls-3" d="M 127.3036422729492 17.27019882202148 L 126.8268203735352 17.27019882202148 C 124.7201232910156 17.27019882202148 123.0273742675781 15.71505832672119 122.8018341064453 13.57242870330811 C 122.6942138671875 12.49611854553223 123.0223693847656 11.43361854553223 123.7261352539062 10.58323860168457 C 124.4239883422852 9.739982604980469 125.3996200561523 9.213886260986328 126.4756469726562 9.099998474121094 L 126.9524536132812 9.099998474121094 C 129.0591583251953 9.099998474121094 130.7519073486328 10.65513896942139 130.9774475097656 12.79776859283447 C 131.0850677490234 13.87407875061035 130.7568969726562 14.93657875061035 130.0531463623047 15.78695869445801 C 129.3553009033203 16.63021469116211 128.3796691894531 17.15631103515625 127.3036422729492 17.27019882202148 Z"/>
        <path class="cls-4" d="M 127.2763824462891 16.77019882202148 C 128.211669921875 16.66458129882812 129.0594635009766 16.20344734191895 129.6679534912109 15.46817874908447 C 130.2852478027344 14.72227382659912 130.5735473632812 13.7918119430542 130.4799499511719 12.84787082672119 C 130.3830871582031 11.93229484558105 129.9771270751953 11.10321998596191 129.3367156982422 10.51302909851074 C 128.6978302001953 9.924248695373535 127.8510818481445 9.599998474121094 126.9524536132812 9.599998474121094 L 126.5029144287109 9.599998474121094 C 125.5676116943359 9.705615997314453 124.7198257446289 10.16674900054932 124.1113357543945 10.90201854705811 C 123.4939956665039 11.64795970916748 123.2056884765625 12.57846736907959 123.2993469238281 13.5224781036377 C 123.3962554931641 14.4379768371582 123.8022003173828 15.26701354980469 124.4425735473633 15.85716819763184 C 125.0814514160156 16.44594955444336 125.9281921386719 16.77019882202148 126.8268203735352 16.77019882202148 L 127.2763824462891 16.77019882202148 M 127.3292999267578 17.77019882202148 C 127.0780563354492 17.77019882202148 126.9524459838867 17.77019882202148 126.8268203735352 17.77019882202148 C 124.4400863647461 17.77019882202148 122.5558166503906 16.01152801513672 122.3045806884766 13.62476825714111 C 122.0533447265625 11.11237907409668 123.9376220703125 8.851238250732422 126.4499816894531 8.599998474121094 C 126.5755920410156 8.599998474121094 126.7012023925781 8.599998474121094 126.9524536132812 8.599998474121094 C 129.3392028808594 8.599998474121094 131.2234649658203 10.35866832733154 131.4747009277344 12.74542903900146 C 131.7259216308594 15.25780868530273 129.8416748046875 17.51895904541016 127.3292999267578 17.77019882202148 Z"/>
      </g>
      <g id="Path_3573" data-name="Path 3573" class="cls-2" transform="translate(-121.781 -8.1)">
        <path class="cls-3" d="M 127.4353713989258 17.90076446533203 L 126.9551239013672 17.90076446533203 C 125.7990112304688 17.90076446533203 124.6852722167969 17.47223472595215 123.8190612792969 16.69410514831543 C 122.9503326416016 15.91372394561768 122.4117431640625 14.85233402252197 122.3025207519531 13.70546436309814 C 122.1879577636719 12.44510459899902 122.5239944458008 11.32760429382324 123.3300247192383 10.2912540435791 C 124.0951766967773 9.307499885559082 125.1825332641602 8.723003387451172 126.4758911132812 8.600004196166992 L 126.9551315307617 8.600004196166992 C 128.1112518310547 8.600004196166992 129.2249908447266 9.028533935546875 130.0912017822266 9.80666446685791 C 130.9599304199219 10.58704471588135 131.4985198974609 11.64843463897705 131.6077270507812 12.79530429840088 C 131.8364562988281 15.42575931549072 130.0052032470703 17.66588401794434 127.4353713989258 17.90076446533203 Z M 122.5628204345703 13.67210102081299 C 122.7094268798828 15.90086650848389 124.6360321044922 17.64457511901855 126.9551239013672 17.64457511901855 L 127.3319854736328 17.64457511901855 L 127.3466720581055 17.64457511901855 L 127.3613433837891 17.64371490478516 C 128.4982604980469 17.57683372497559 129.5846405029297 17.02015495300293 130.3419494628906 16.11641502380371 C 131.1148681640625 15.19405460357666 131.4809417724609 13.99650573730469 131.3474578857422 12.82866859436035 C 131.2008209228516 10.59990215301514 129.2742156982422 8.856194496154785 126.9551315307617 8.856194496154785 L 126.5782775878906 8.856194496154785 L 126.5635833740234 8.856194496154785 L 126.5489120483398 8.857054710388184 C 125.411994934082 8.923933982849121 124.3256072998047 9.48061466217041 123.5683059692383 10.38436412811279 C 122.7953948974609 11.30672359466553 122.4293212890625 12.50427341461182 122.5628204345703 13.67210102081299 Z"/>
        <path class="cls-4" d="M 127.4576110839844 18.40076446533203 C 127.3319854736328 18.40076446533203 127.0807571411133 18.40076446533203 126.9551239013672 18.40076446533203 C 124.3171539306641 18.40076446533203 122.0560150146484 16.3908634185791 121.8047714233398 13.75286388397217 C 121.6791610717773 12.37105464935303 122.056037902832 11.11485385894775 122.9353408813477 9.984284400939941 C 123.8146820068359 8.853713989257812 125.0708618164062 8.225624084472656 126.4526519775391 8.100004196166992 C 126.5782775878906 8.100004196166992 126.8295135498047 8.100004196166992 126.9551315307617 8.100004196166992 C 129.5931091308594 8.100004196166992 131.854248046875 10.10990428924561 132.1054840087891 12.74790477752686 C 132.3567199707031 15.63714408874512 130.3468170166016 18.1495246887207 127.4576110839844 18.40076446533203 Z M 126.5782775878906 9.356194496154785 C 124.4427642822266 9.481814384460449 122.8097305297852 11.49171447753906 123.0609741210938 13.6272439956665 C 123.1865844726562 15.63714408874512 124.9452362060547 17.14457511901855 126.9551239013672 17.14457511901855 C 127.0807571411133 17.14457511901855 127.2063751220703 17.14457511901855 127.3319854736328 17.14457511901855 C 129.4674987792969 17.01895523071289 131.1005249023438 15.00905418395996 130.8493041992188 12.87352466583252 C 130.7236785888672 10.86362457275391 128.9650268554688 9.356194496154785 126.9551315307617 9.356194496154785 C 126.8295135498047 9.356194496154785 126.7038879394531 9.356194496154785 126.5782775878906 9.356194496154785 Z"/>
      </g>
    </g>
  </g>
</svg>
