<svg xmlns="http://www.w3.org/2000/svg" viewBox="0 0 5.707 12.49">
  <defs>
    <style>
      .cls-1 {
        fill: #fff;
        stroke: #fff;
        stroke-width: 0.25px;
      }
    </style>
  </defs>
  <path id="Path_3399" data-name="Path 3399" class="cls-1" d="M4.454-10.608a1.506,1.506,0,0,1-.459,1.1,1.487,1.487,0,0,1-1.088.459A1.487,1.487,0,0,1,1.819-9.5a1.506,1.506,0,0,1-.459-1.1A1.487,1.487,0,0,1,1.819-11.7a1.487,1.487,0,0,1,1.088-.459,1.487,1.487,0,0,1,1.088.459A1.487,1.487,0,0,1,4.454-10.608ZM5.729-.289a.814.814,0,0,1-.043.238q-.043.136-.094.136-.527,0-1.317-.043T2.89,0Q2.312,0,1.615.043T.408.085Q.357.085.315-.051A.814.814,0,0,1,.272-.289.78.78,0,0,1,.315-.51Q.357-.646.408-.663A1.435,1.435,0,0,0,1.3-1a1.612,1.612,0,0,0,.264-1.088v-2.55A1.1,1.1,0,0,0,1.3-5.525,1.82,1.82,0,0,0,.408-5.8Q.357-5.814.315-5.942a.7.7,0,0,1-.042-.212.78.78,0,0,1,.042-.221q.043-.136.093-.136a12.664,12.664,0,0,0,1.836-.553q1.02-.383,1.581-.655a1.151,1.151,0,0,1,.17-.085.535.535,0,0,1,.2-.051.512.512,0,0,1,.3.068.15.15,0,0,1,.076.153q-.034.595-.085,1.445T4.437-4.76v2.669A1.615,1.615,0,0,0,4.709-1a1.328,1.328,0,0,0,.884.34q.051,0,.094.144A.866.866,0,0,1,5.729-.289Z" transform="translate(-0.147 12.28)"/>
</svg>
