<svg xmlns="http://www.w3.org/2000/svg" viewBox="0 0 15 15"><defs><style>.a{fill:#fff;}</style></defs><g transform="translate(0 0)"><path class="a" d="M12.682,4.429h9.545a.715.715,0,0,0,0-1.429H12.682a.715.715,0,0,0,0,1.429Z" transform="translate(-7.909 -2.286)"/><path class="a" d="M22.227,37H12.682a.715.715,0,0,0,0,1.429h9.545a.715.715,0,0,0,0-1.429Z" transform="translate(-7.909 -24.143)"/><path class="a" d="M22.227,20H12.682a.715.715,0,0,0,0,1.429h9.545a.715.715,0,0,0,0-1.429Z" transform="translate(-7.909 -13.214)"/><ellipse class="a" cx="1.364" cy="1.429" rx="1.364" ry="1.429"/><ellipse class="a" cx="1.364" cy="1.429" rx="1.364" ry="1.429" transform="translate(0 6.071)"/><ellipse class="a" cx="1.364" cy="1.429" rx="1.364" ry="1.429" transform="translate(0 12.143)"/></g></svg>