<svg xmlns="http://www.w3.org/2000/svg" xmlns:xlink="http://www.w3.org/1999/xlink" viewBox="0 0 27.787 24.253"><defs><style>.a{fill:#f8cd46;}.b{fill:#fff;}.c{clip-path:url(#a);}</style><clipPath id="a"><path class="a" d="M0,0H2.413V13.274H0Z"/></clipPath></defs><g transform="translate(27.787 24.253) rotate(180)"><path class="b" d="M27.595,22.75,14.76.607a.923.923,0,0,0-1.734,0L.191,22.75c-.463.809-.058,1.5.925,1.5H26.728A.926.926,0,0,0,27.595,22.75Z" transform="translate(0)"/><g transform="translate(12.782 7.633)"><g class="c"><g transform="translate(0 0)"><path class="a" d="M.35.356A1.21,1.21,0,0,1,1.207,0a1.23,1.23,0,0,1,.857.35,1.242,1.242,0,0,1,.35.857,1.24,1.24,0,0,1-.35.857,1.256,1.256,0,0,1-1.708,0A1.209,1.209,0,0,1,.35.356"/></g><g transform="translate(0 4.827)"><path class="a" d="M0,1.207a1.207,1.207,0,0,1,2.413,0V7.24A1.207,1.207,0,1,1,0,7.24Z"/></g></g></g></g></svg>