<svg xmlns="http://www.w3.org/2000/svg" xmlns:xlink="http://www.w3.org/1999/xlink" viewBox="0 0 4.669 25.683"><defs><style>.a{fill:#fff;}.b{clip-path:url(#a);}</style><clipPath id="a"><path class="a" d="M0-22H4.67V3.683H0Z" transform="translate(0 22)"/></clipPath></defs><g transform="translate(0 0)"><g class="b" transform="translate(0 0)"><g transform="translate(0 0)"><path class="a" d="M.1.1A2.342,2.342,0,0,1,1.755-.59,2.381,2.381,0,0,1,3.413.087,2.4,2.4,0,0,1,4.09,1.745,2.4,2.4,0,0,1,3.413,3.4a2.43,2.43,0,0,1-3.3,0A2.339,2.339,0,0,1,.1.1" transform="translate(0.58 0.59)"/></g><g transform="translate(0 9.339)"><path class="a" d="M0,.335a2.335,2.335,0,0,1,4.67,0V12.009a2.335,2.335,0,0,1-4.67,0Z" transform="translate(0 2)"/></g></g></g></svg>