<svg xmlns="http://www.w3.org/2000/svg" viewBox="0 0 23.67 23.671"><defs><style>.a{fill:#3c3d4a;}</style></defs><path class="a" d="M23.671,12.822V10.849L18.739,9.222c-.049-.148-.1-.247-.148-.395l2.318-4.635L19.528,2.811,14.893,5.129c-.148-.049-.247-.1-.395-.148L12.822,0H10.849L9.222,4.931c-.148.049-.247.1-.395.148L4.192,2.762,2.762,4.142,5.079,8.778c-.049.148-.1.247-.148.395L0,10.849v1.973l4.931,1.627c.049.148.1.247.148.395L2.762,19.479,4.142,20.86l4.635-2.318c.148.049.247.1.395.148l1.677,4.981h1.973l1.627-4.931a3.4,3.4,0,0,0,.395-.148l4.635,2.318,1.381-1.381-2.318-4.635a3.4,3.4,0,0,1,.148-.395ZM11.835,17.26a5.425,5.425,0,1,1,5.425-5.425A5.409,5.409,0,0,1,11.835,17.26Z"/></svg>