<svg xmlns="http://www.w3.org/2000/svg" viewBox="0 0 39.331 75.115"><defs><style>.a{fill:#049fd9;stroke:#78b9df;stroke-miterlimit:10;}.b,.d{fill:#fff;stroke:#64bbe3;}.c{fill:#64bbe3;}.d{stroke-width:2px;}.e{stroke:none;}.f{fill:none;}</style></defs><g transform="translate(0 -5.17)"><g transform="translate(0 5.17)"><path class="a" d="M164.833,48.148V3.6H158.32V48.513a9.241,9.241,0,0,0-6.92,8.764c0,5.112,4.478,9.129,10.176,9.129s10.176-4.017,10.176-9.129C171.753,52.9,168.9,49.609,164.833,48.148Z" transform="translate(-144.989 -0.307)"/><g transform="translate(26.62 1.617)"><rect class="b" width="4.382" height="12.212" rx="2.191" transform="translate(12.212) rotate(90)"/><rect class="c" width="4.382" height="8.141" rx="2.191" transform="translate(8.312 22.062) rotate(90)"/><rect class="b" width="4.382" height="8.141" rx="2.191" transform="translate(8.293 11.821) rotate(90)"/></g><ellipse class="c" cx="17.503" cy="18.201" rx="17.503" ry="18.201" transform="translate(0 38.713)"/><g class="d" transform="translate(10.671)"><rect class="e" width="12.813" height="45.978" rx="6.407"/><rect class="f" x="1" y="1" width="10.813" height="43.978" rx="5.407"/></g><path class="c" d="M6.407,0a6.343,6.343,0,0,1,6.407,6.277V18.222A6.343,6.343,0,0,1,6.407,24.5,6.343,6.343,0,0,1,0,18.222V6.277A6.343,6.343,0,0,1,6.407,0Z" transform="translate(10.671 21.478)"/></g></g></svg>