<svg xmlns="http://www.w3.org/2000/svg" viewBox="0 0 31.029 47.877"><defs><style>.a{fill:#049fd9;stroke:#78b9df;stroke-miterlimit:10;}.b,.d{fill:#fff;stroke:#2f4f4f;}.c,.e{fill:#2f4f4f;}.d{stroke-width:2px;}.e{font-size:4px;font-family:Helvetica, Helvetica;font-weight:700;}.f{stroke:none;}.g{fill:none;}</style></defs><g transform="translate(0 0)"><g transform="translate(0 3.288)"><path class="a" d="M159.63,31.93V3.6h-3.99V32.162a5.839,5.839,0,0,0-4.239,5.573,6.25,6.25,0,0,0,12.469,0A6.122,6.122,0,0,0,159.63,31.93Z" transform="translate(-147.472 -1.506)"/><g transform="translate(16.309 1.028)"><rect class="b" width="2.787" height="7.481" rx="1.393" transform="translate(7.481) rotate(90)"/><rect class="c" width="2.787" height="4.988" rx="1.393" transform="translate(5.092 14.03) rotate(90)"/><rect class="b" width="2.787" height="4.988" rx="1.393" transform="translate(5.081 7.517) rotate(90)"/></g><ellipse class="c" cx="10.723" cy="9.985" rx="10.723" ry="9.985" transform="translate(0 24.619)"/><g class="d" transform="translate(6.538)"><rect class="f" width="7.85" height="29.239" rx="3.925"/><rect class="g" x="1" y="1" width="5.85" height="27.239" rx="2.925"/></g><rect class="c" width="7.85" height="15.58" rx="3.925" transform="translate(6.538 13.659)"/></g><text class="e" transform="translate(28.029 4)"><tspan x="0" y="0">C</tspan></text></g></svg>